# File created by Blade
# Date/Time:  Tue Jan 27 18:50:05 2015
# Frame Rate: 120.000 fps
#------------------------------------------------------
:FULLY-SPECIFIED
:DEGREES
3449
root -6.309612 32.054962 -5.299104 11.149710 3.716418 3.235661
Spine -1.771050 -7.492245 -0.401625
Head 21.816908 1.966323 3.542341
LeftShoulder -20.385875 18.597817 18.907470
LeftArm 18.244647 -29.417785 -50.828515
LeftForeArm -20.905020 0.000000 44.151354
LeftHand -14.298797 -0.000000 5.437419
LeftHandThumb1 -26.253704 0.000000 33.147579
RightShoulder -18.310928 -0.282179 -33.203006
RightArm 16.355545 12.566744 36.959364
RightForeArm -24.681972 -0.000000 11.357608
RightHand -16.839845 0.000000 5.289060
RightHandThumb1 -24.326973 -0.000000 -32.862282
LeftUpLeg -9.436607 -0.832005 -3.587257
LeftLeg 5.646181 -0.000000 -0.000000
LeftFoot -18.930593 15.928144 -28.436415
LeftToeBase 5.859300 -0.000000 -0.000000
RightUpLeg -13.536114 -4.951305 -1.438997
RightLeg 13.336254 -0.000000 -0.000000
RightFoot -17.333496 -15.010296 4.341504
RightToeBase 1.324018 -0.000000 -0.000000
3450
root -6.344888 32.060121 -5.249976 10.987555 4.100832 3.251763
Spine -1.741390 -7.556585 -0.423162
Head 21.936191 1.744457 3.789119
LeftShoulder -20.303304 18.504777 18.986708
LeftArm 18.656762 -28.860199 -50.242410
LeftForeArm -20.777991 0.000000 42.905731
LeftHand -14.625589 -0.000000 5.401696
LeftHandThumb1 -26.253704 0.000000 33.147579
RightShoulder -18.362321 -0.721038 -33.054793
RightArm 16.554221 12.657624 37.043657
RightForeArm -24.325917 -0.000000 10.963172
RightHand -16.707788 0.000000 5.677767
RightHandThumb1 -24.326973 -0.000000 -32.862282
LeftUpLeg -9.549845 -1.847252 -3.343087
LeftLeg 6.390786 -0.000000 -0.000000
LeftFoot -19.417633 16.046812 -29.091596
LeftToeBase 5.894110 -0.000000 -0.000000
RightUpLeg -13.003442 -5.060555 -1.379680
RightLeg 12.854194 -0.000000 -0.000000
RightFoot -17.252889 -15.204247 4.380574
RightToeBase 1.364314 -0.000000 -0.000000
3451
root -6.389419 32.064623 -5.198406 10.825419 4.501475 3.226248
Spine -1.736476 -7.648945 -0.431630
Head 22.102066 1.502453 4.015286
LeftShoulder -20.278304 18.385871 19.085265
LeftArm 19.084240 -28.236489 -49.625284
LeftForeArm -20.843618 -0.000000 41.574669
LeftHand -14.602100 -0.000000 5.136655
LeftHandThumb1 -26.253704 0.000000 33.147579
RightShoulder -18.420200 -0.739725 -33.022725
RightArm 16.623477 12.707012 37.230429
RightForeArm -24.398994 -0.000000 10.437123
RightHand -16.605014 -0.000000 5.981953
RightHandThumb1 -24.326973 -0.000000 -32.862282
LeftUpLeg -9.850926 -2.263121 -3.160804
LeftLeg 7.496353 -0.000000 -0.000000
LeftFoot -19.675649 15.911400 -29.139772
LeftToeBase 5.598353 -0.000000 -0.000000
RightUpLeg -12.444716 -5.150242 -1.264644
RightLeg 12.326631 -0.000000 -0.000000
RightFoot -17.157631 -15.422592 4.400200
RightToeBase 1.387026 -0.000000 -0.000000
3452
root -6.422844 32.068581 -5.144164 10.659535 4.878768 3.233948
Spine -1.752039 -7.732337 -0.437736
Head 22.298789 1.295712 4.146491
LeftShoulder -20.195361 18.367922 19.154655
LeftArm 19.532948 -27.816009 -49.120494
LeftForeArm -21.032406 -0.000000 40.247881
LeftHand -14.552104 -0.000000 4.726530
LeftHandThumb1 -26.253704 0.000000 33.147579
RightShoulder -18.484686 -0.750069 -33.023949
RightArm 16.664786 12.332474 37.222437
RightForeArm -24.151802 0.000000 9.935352
RightHand -16.470114 -0.000000 6.340414
RightHandThumb1 -24.326973 -0.000000 -32.862282
LeftUpLeg -10.067662 -2.875477 -2.979254
LeftLeg 8.468500 -0.000000 -0.000000
LeftFoot -19.881055 15.771129 -29.274294
LeftToeBase 5.451369 -0.000000 -0.000000
RightUpLeg -11.822378 -5.158473 -1.229146
RightLeg 11.697644 -0.000000 -0.000000
RightFoot -17.070754 -15.624052 4.479807
RightToeBase 1.512015 -0.000000 -0.000000
3453
root -6.451580 32.071539 -5.092093 10.490464 5.222408 3.257712
Spine -1.757193 -7.786827 -0.454226
Head 22.475600 1.088544 4.191701
LeftShoulder -20.111405 18.245316 19.235309
LeftArm 19.898080 -27.299329 -48.536205
LeftForeArm -21.145382 -0.000000 38.908568
LeftHand -14.686308 0.000000 4.409322
LeftHandThumb1 -26.253704 0.000000 33.147579
RightShoulder -18.524280 -0.786778 -33.077527
RightArm 16.749956 12.428900 37.463883
RightForeArm -24.377389 -0.000000 9.391242
RightHand -16.279887 -0.000000 6.598758
RightHandThumb1 -24.326973 -0.000000 -32.862282
LeftUpLeg -10.226043 -3.629909 -2.806974
LeftLeg 9.316462 -0.000000 -0.000000
LeftFoot -20.165738 15.720205 -29.674531
LeftToeBase 5.210574 -0.000000 -0.000000
RightUpLeg -11.258158 -5.332104 -1.199921
RightLeg 11.179670 -0.000000 -0.000000
RightFoot -16.997433 -15.636891 4.527722
RightToeBase 1.475769 -0.000000 -0.000000
3454
root -6.473316 32.075004 -5.039553 10.329614 5.554681 3.263420
Spine -1.784021 -7.848519 -0.414815
Head 22.639334 0.914999 4.147087
LeftShoulder -20.023973 18.134307 19.264789
LeftArm 20.212644 -26.829884 -47.954007
LeftForeArm -21.251822 -0.000000 37.618881
LeftHand -14.515350 -0.000000 3.809576
LeftHandThumb1 -26.253704 0.000000 33.147579
RightShoulder -18.551049 -0.763203 -33.151823
RightArm 16.783518 12.337765 37.555837
RightForeArm -24.489454 -0.000000 8.891577
RightHand -16.118417 -0.000000 7.069949
RightHandThumb1 -24.326973 -0.000000 -32.862282
LeftUpLeg -10.412467 -4.271739 -2.642168
LeftLeg 10.207913 -0.000000 -0.000000
LeftFoot -20.326781 15.672802 -29.748937
LeftToeBase 4.994315 -0.000000 -0.000000
RightUpLeg -10.620142 -5.284820 -1.194547
RightLeg 10.491130 -0.000000 -0.000000
RightFoot -16.889052 -15.820704 4.662448
RightToeBase 1.615700 -0.000000 -0.000000
